<svg width="72" height="53" viewBox="0 0 72 53" fill="none" xmlns="http://www.w3.org/2000/svg">
<path d="M56.1434 21.2249H15.063L12.5981 32.1796H58.6082L56.1434 21.2249Z" fill="#6C6132"/>
<path d="M65.044 0H6.16211C2.76425 0 0 2.76425 0 6.16198V26.0175C0 29.4152 2.76425 32.1796 6.16211 32.1796H8.38731L11.4158 18.72C11.6266 17.7826 12.459 17.1167 13.4197 17.1167H57.7866C58.7473 17.1167 59.5797 17.7826 59.7905 18.72L62.819 32.1796H65.0442C68.4419 32.1796 71.2063 29.4154 71.2063 26.0175V6.16198C71.2062 2.76425 68.4419 0 65.044 0ZM46.5578 14.3781H43.8192C42.6848 14.3781 41.7652 13.4584 41.7652 12.3241C41.7652 11.1898 42.6849 10.2701 43.8192 10.2701H46.5578C47.6923 10.2701 48.6118 11.1898 48.6118 12.3241C48.6118 13.4584 47.6923 14.3781 46.5578 14.3781ZM56.1433 14.3781H53.4046C52.2702 14.3781 51.3506 13.4584 51.3506 12.3241C51.3506 11.1898 52.2703 10.2701 53.4046 10.2701H56.1433C57.2777 10.2701 58.1973 11.1898 58.1973 12.3241C58.1973 13.4584 57.2777 14.3781 56.1433 14.3781Z" fill="#6C6132"/>
<path d="M36.9725 41.5362C36.9725 40.9642 37.0792 40.7863 37.3644 40.3111C37.7537 39.6625 38.3418 38.6823 38.3418 36.9722C38.3418 35.8378 37.4221 34.9182 36.2878 34.9182C35.1535 34.9182 34.2338 35.8379 34.2338 36.9722C34.2338 37.5442 34.1272 37.7221 33.8419 38.1973C33.4526 38.846 32.8645 39.8262 32.8645 41.5362C32.8645 43.2463 33.4526 44.2266 33.8418 44.8754C34.127 45.3509 34.2338 45.5288 34.2338 46.1009C34.2338 46.6731 34.1272 46.8512 33.8418 47.3264C33.4526 47.9752 32.8645 48.9556 32.8645 50.6656C32.8645 51.8001 33.7842 52.7196 34.9185 52.7196C36.0528 52.7196 36.9725 51.7999 36.9725 50.6656C36.9725 50.0933 37.0792 49.9153 37.3645 49.4401C37.7537 48.7915 38.3418 47.8111 38.3418 46.1009C38.3418 44.3907 37.7537 43.4105 37.3645 42.7617C37.0793 42.2864 36.9725 42.1085 36.9725 41.5362Z" fill="#6C6132"/>
<path d="M26.0177 41.5362C26.0177 40.9642 26.1243 40.7863 26.4096 40.3111C26.7988 39.6625 27.387 38.6823 27.387 36.9722C27.387 35.8378 26.4673 34.9182 25.333 34.9182C24.1987 34.9182 23.279 35.8379 23.279 36.9722C23.279 37.5442 23.1723 37.7221 22.8871 38.1973C22.4978 38.846 21.9097 39.8262 21.9097 41.5362C21.9097 43.2463 22.4978 44.2266 22.8869 44.8754C23.1722 45.3509 23.279 45.5288 23.279 46.1009C23.279 46.6731 23.1723 46.8512 22.8869 47.3264C22.4978 47.9752 21.9097 48.9556 21.9097 50.6656C21.9097 51.8001 22.8294 52.7196 23.9637 52.7196C25.098 52.7196 26.0177 51.7999 26.0177 50.6656C26.0177 50.0933 26.1243 49.9153 26.4097 49.4401C26.7988 48.7915 27.387 47.8111 27.387 46.1009C27.387 44.3907 26.7988 43.4105 26.4097 42.7617C26.1245 42.2864 26.0177 42.1085 26.0177 41.5362Z" fill="#6C6132"/>
<path d="M47.9271 41.5362C47.9271 40.9642 48.0337 40.7863 48.319 40.3111C48.7083 39.6625 49.2964 38.6823 49.2964 36.9722C49.2964 35.8378 48.3767 34.9182 47.2424 34.9182C46.1081 34.9182 45.1884 35.8379 45.1884 36.9722C45.1884 37.5442 45.0818 37.7221 44.7965 38.1973C44.4072 38.846 43.8191 39.8262 43.8191 41.5362C43.8191 43.2463 44.4072 44.2266 44.7964 44.8754C45.0816 45.3509 45.1884 45.5288 45.1884 46.1009C45.1884 46.6731 45.0818 46.8512 44.7964 47.3264C44.4072 47.9752 43.8191 48.9556 43.8191 50.6656C43.8191 51.8001 44.7388 52.7196 45.8731 52.7196C47.0074 52.7196 47.9271 51.7999 47.9271 50.6656C47.9271 50.0933 48.0337 49.9153 48.3191 49.4401C48.7083 48.7915 49.2964 47.8111 49.2964 46.1009C49.2964 44.3907 48.7083 43.4105 48.3191 42.7617C48.0339 42.2864 47.9271 42.1085 47.9271 41.5362Z" fill="#6C6132"/>
</svg>
