<svg width="39" height="40" viewBox="0 0 39 40" fill="none" xmlns="http://www.w3.org/2000/svg">
<g clip-path="url(#clip0)">
<path d="M26.619 33.0442C25.951 32.359 24.8864 32.3004 24.152 32.9114C22.3454 34.4145 20.1026 35.253 17.7364 35.253C12.0561 35.253 7.43371 30.513 7.43371 24.6853C7.43371 22.1033 8.36054 19.6539 10.0109 17.7381C10.5301 17.1348 10.5167 16.2239 9.9764 15.6395C9.62601 15.2595 9.27645 14.8777 8.92605 14.4968C8.64456 14.1899 8.25131 14.0176 7.84041 14.0202C7.42951 14.0228 7.03878 14.2003 6.7598 14.5097C5.90272 15.4629 5.15991 16.5203 4.57507 17.6683C3.47934 19.8203 2.90039 22.2463 2.90039 24.6853C2.90039 33.076 9.55626 39.9034 17.7372 39.9034C20.1001 39.9034 22.4529 39.3157 24.5427 38.2056C25.446 37.7247 26.3039 37.1447 27.0946 36.4811C27.498 36.1424 27.7433 35.6443 27.771 35.1108C27.7971 34.5765 27.6038 34.0534 27.2341 33.6759L26.619 33.0442Z" fill="#6C6132"/>
<path d="M13.1127 7.42895C15.1092 7.42895 16.7343 5.76304 16.7343 3.71448C16.7343 1.66677 15.11 0 13.1127 0C11.1153 0 9.49023 1.66677 9.49023 3.71448C9.49107 5.76218 11.1162 7.42895 13.1127 7.42895Z" fill="#6C6132"/>
<path d="M36.0625 37.2568L33.7879 24.4879C33.6484 23.7011 33.1972 22.9935 32.5535 22.5445C32.0678 22.2049 31.4981 22.0248 30.9099 22.0248C30.7183 22.0248 30.5251 22.0438 30.3368 22.0826L19.9568 24.2104C19.9215 24.2173 19.8846 24.2225 19.8484 24.2225C19.5879 24.2225 19.3619 24.032 19.3098 23.77L18.4544 19.448L25.6615 18.1871C26.7925 17.9889 27.5555 16.884 27.3614 15.7249C27.19 14.6958 26.3279 13.9486 25.3086 13.9486C25.1918 13.9486 25.0758 13.959 24.9607 13.9788L17.6259 15.2621L16.6848 10.503C16.4873 9.39819 15.5504 8.59583 14.4563 8.59583C14.3194 8.59583 14.1816 8.60875 14.0463 8.63375C13.4505 8.74492 12.9321 9.08879 12.5884 9.59899C12.2439 10.1109 12.1145 10.7288 12.2229 11.3433L15.226 26.8588C15.3781 27.6457 15.8201 28.3239 16.4697 28.7695C16.952 29.0996 17.5141 29.2745 18.0948 29.2745C18.2872 29.2745 18.4796 29.2564 18.6687 29.2159L29.0714 27.0863C29.2167 27.0562 29.3688 27.0881 29.4898 27.1725C29.6108 27.257 29.6949 27.3897 29.7226 27.5388L31.6015 38.0936C31.7981 39.1993 32.7358 40.0017 33.8282 40.0017C33.966 40.0017 34.1021 39.9888 34.2383 39.9638C34.834 39.8526 35.3508 39.5096 35.6953 38.9977C36.0415 38.4866 36.1709 37.8678 36.0625 37.2568Z" fill="#6C6132"/>
</g>
<defs>
<clipPath id="clip0">
<rect width="39" height="40" fill="white"/>
</clipPath>
</defs>
</svg>
