<svg width="41" height="32" viewBox="0 0 41 32" fill="none" xmlns="http://www.w3.org/2000/svg">
<path d="M37.4549 6.02432C36.8773 6.02432 32.9908 6.02432 28.0154 6.02432V1.94701C28.0154 1.19502 27.4059 0.587524 26.657 0.587524H13.8938C13.143 0.587524 12.5343 1.19512 12.5343 1.94701V6.02432C7.27001 6.02432 3.11614 6.02432 2.56605 6.02432C0.981384 6.02432 0 6.85519 0 8.06302C0 9.27137 0 10.4792 0 10.4792H40.098C40.098 10.4792 40.098 9.42135 40.098 8.2527C40.098 7.08227 39.1926 6.02432 37.4549 6.02432ZM25.2962 6.02432C22.0449 6.02432 18.5316 6.02432 15.2534 6.02432V3.30524H25.2962V6.02432Z" fill="#6C6132"/>
<path d="M0.151654 29.9637C0.151654 31.0209 0.67784 31.7747 1.96329 31.7747H38.1326C39.4163 31.7747 39.9449 30.7369 39.9449 29.9637V11.9153C37.0754 11.9153 3.20903 11.9153 0.150391 11.9153V29.9636H0.151654V29.9637ZM20.0488 14.7659C23.9598 14.7659 27.1293 17.9346 27.1293 21.8455C27.1293 25.7552 23.9598 28.9259 20.0488 28.9259C16.138 28.9259 12.9693 25.7553 12.9693 21.8455C12.9693 17.9347 16.138 14.7659 20.0488 14.7659Z" fill="#6C6132"/>
<path d="M18.5312 26.4893H21.5659V23.364H24.6924V20.3269H21.5659V17.2003H18.5312V20.3269H15.4033V23.364H18.5312V26.4893Z" fill="#6C6132"/>
</svg>
