<?xml version="1.0" encoding="utf-8"?>
<!-- Generator: Adobe Illustrator 24.0.1, SVG Export Plug-In . SVG Version: 6.00 Build 0)  -->
<svg version="1.1" id="Layer_1" xmlns="http://www.w3.org/2000/svg" xmlns:xlink="http://www.w3.org/1999/xlink" x="0px" y="0px"
	 viewBox="0 0 511 511" style="enable-background:new 0 0 511 511;" xml:space="preserve">
<style type="text/css">
	.st0{fill:#6C6132;}
</style>
<path class="st0" d="M0.1,495.9h112.1l29.9-29.9H369l29.9,29.9H511v-89.8H0.1L0.1,495.9z"/>
<path class="st0" d="M255.6,166.6c-41.3,0-74.8,33.5-74.8,74.8s33.5,74.8,74.8,74.8s74.8-33.5,74.8-74.8S296.9,166.6,255.6,166.6z
	 M269.6,291.1l-28.1-9.6l8.4-25.1H220l21.6-64.7l28.1,9.6l-8.4,25.1h29.9L269.6,291.1z"/>
<path class="st0" d="M0.1,106.8v269.4H511V106.8H0.1z M255.6,346.2c-57.8,0-104.8-47-104.8-104.8s47-104.8,104.8-104.8
	s104.8,47,104.8,104.8S313.3,346.2,255.6,346.2z"/>
<path class="st0" d="M31.1,76.8h119.7V46.9h29.9V17c-4.4,0-186.7,0-180.6,0v29.9h30.9V76.8z"/>
</svg>
