<?xml version="1.0" encoding="utf-8"?>
<!-- Generator: Adobe Illustrator 24.0.1, SVG Export Plug-In . SVG Version: 6.00 Build 0)  -->
<svg version="1.1" id="Capa_1" xmlns="http://www.w3.org/2000/svg" xmlns:xlink="http://www.w3.org/1999/xlink" x="0px" y="0px"
	 viewBox="0 0 512 512" style="enable-background:new 0 0 512 512;" xml:space="preserve">
<style type="text/css">
	.st0{fill:#6C6132;}
</style>
<path class="st0" d="M417.4,468.5c0-24.3-19.8-44.1-44.1-44.1c-21.8,0-39.9,16-43.5,36.8h-7.1l12.2,21l12.6-21h-7.3
	c3.3-15.3,16.9-26.6,33.1-26.6c18.7,0,33.9,15.2,33.9,33.9c0,16.1-11.5,29.7-26.5,33.1V512C401.4,508.5,417.4,490.3,417.4,468.5z"/>
<path class="st0" d="M400.8,351.8l-86.3-28.8c22-16.2,36.7-41.2,40-69.1c16.9-5.6,29-21.6,29-40.3c0-18.5-11.8-34.2-28.3-40.1v-39.1
	l24.2-24.2c4.3-4.3,5.3-10.9,2.7-16.3l-28.3-57.6c-1.6-3.3-4.6-6-8.2-7.2l-85-28.3C259.2,0.3,257.6,0,256,0c-1.5,0-3.2,0.3-4.5,0.7
	l-85,28.3c0,0,0,0,0,0c-3.4,1.2-6.5,3.7-8.2,7.1c0,0,0,0,0,0l-28.3,57.6c-2.7,5.5-1.5,12.1,2.7,16.3l24.2,24.2v39.1
	c-16.5,5.8-28.3,21.6-28.3,40.1c0,18.7,12.2,34.7,29,40.3c3.3,27.9,18,52.9,40,69.1l-86.2,28.8c-40.6,13.3-67.9,51.1-67.9,94v23.8
	c0,7.8,6.3,14.2,14.2,14.2v0h273l-15.6-26.9h11.2c0.1-0.5,0.2-0.9,0.4-1.4h-32l-14.3-42.9l26.1,13c6.4,3.2,14.2,1.1,18.1-4.8
	l35.2-52.8l32.2,10.8c28.9,9.5,48.3,36.4,48.3,67v9.6H420c1.2,4.2,1.8,8.6,1.8,13.2c0,5.3-0.8,10.4-2.4,15.1h34.9
	c7.8,0,14.2-6.3,14.2-14.2v-23.8C468.6,402.8,441.3,365,400.8,351.8z M181.1,54.1l74.9-25l74.9,25l21.2,43.2l-17,17H176.8l-17-17
	L181.1,54.1z M313.6,142.6C301.5,156,282.1,171,256,171c-26.1,0-45.5-15-57.6-28.3H313.6z M217.4,455.3H71.8v-9.6
	c0-30.6,19.4-57.5,48.4-67l32.1-10.7l35.2,52.8c4,6,11.7,8,18.1,4.8l26.1-13L217.4,455.3z M204.2,394.6l-24-36l40.3-13.5l16.5,33
	L204.2,394.6z M247.3,455.3l8.7-26l8.7,26H247.3z M270.2,323v1.5L256,352.8l-14.2-28.3V323c0-6-3.8-11.4-9.5-13.4
	c-28.2-9.9-47.2-37.1-47.2-67.8c0-7.8-6.3-14.2-14.2-14.2c-7.8,0-14.2-6.4-14.2-14.2c0-7.8,6.4-14.2,14.2-14.2
	c7.8,0,14.2-6.3,14.2-14.2v-15.4c16.1,15.2,39.7,29.6,70.9,29.6c31.2,0,54.7-14.4,70.9-29.6v15.4c0,7.8,6.3,14.2,14.2,14.2
	c7.8,0,14.2,6.4,14.2,14.2c0,7.8-6.4,14.2-14.2,14.2c-7.8,0-14.2,6.3-14.2,14.2c0,30.6-19,57.9-47.2,67.8
	C274,311.6,270.2,317,270.2,323z M307.8,394.6L275,378.1l16.5-33l40.3,13.5L307.8,394.6z"/>
<path class="st0" d="M330.2,507.4l3.2-3.4c2.1-2.3,3.6-4,4.3-5.2c0.8-1.2,1.2-2.5,1.2-4c0-2.3-0.7-4-2.2-5.3
	c-1.5-1.3-3.5-1.9-6.2-1.9c-2.5,0-4.5,0.8-6,2.3c-1.5,1.5-2.2,3.5-2.2,5.7l0,0.1h5.4c0-1.3,0.2-2,0.7-2.8c0.5-0.7,1.1-1.1,2-1.1
	c0.9,0,1.6,0.3,2.1,0.8c0.5,0.5,0.7,1.3,0.7,2.2c0,0.6-0.2,1.4-0.7,2.3c-0.5,0.9-1.1,1.9-2.1,3l-7.7,8.1v3.7h16.6v-4.5L330.2,507.4
	C330.3,507.4,330.2,507.4,330.2,507.4z"/>
<path class="st0" d="M354.8,488h-5.4v-0.1l-9.7,15.5l0.3,3.4h9.4v5.1h5.4v-5.1h2.6v-4.1h-2.6C354.8,502.7,354.8,488,354.8,488z
	 M349.4,502.7h-4.8l4.1-6.8l0.5-0.7l0.2,0V502.7z"/>
<path class="st0" d="M375.6,511.9v-10.3c0-0.8,0-1.5-0.1-2.1c-0.2-1.6-0.7-2.9-1.4-3.9c-1.1-1.3-2.5-1.9-4.3-1.9
	c-0.9,0-1.7,0.2-2.5,0.7c-0.8,0.4-1.6,1.1-1.9,1.9v-8.5h-5.7v24.2h5.7v-13c0-0.3,0.5-0.5,0.9-0.7c0.4-0.2,0.8-0.2,1.4-0.2
	c0.8,0,1.5,0.3,1.9,0.8c0.4,0.5,0.6,1.5,0.6,2.8v10.4h1.9H375.6L375.6,511.9z"/>
<g>
	<path class="st0" d="M374.9,455.3h24.6c2,4,3.1,8.5,3.1,13.2c0,5.5-1.6,10.7-4.3,15.1h-59.1l16.1-26.9h-9.1
		c0.2-0.5,0.4-0.9,0.7-1.4h18.3H374.9z"/>
</g>
</svg>
