<svg width="68" height="100" viewBox="0 0 68 100" fill="none" xmlns="http://www.w3.org/2000/svg">
<path d="M33.9263 73.659C30.921 73.659 27.9931 73.3242 25.1775 72.6875L24.5991 81.6627H44.0321L43.4454 72.5056C40.3935 73.2603 37.2063 73.659 33.9263 73.659Z" fill="#6C6132"/>
<path d="M44.4041 87.468H24.2249L23.8509 93.2734H17.8647V99.0788H50.762V93.2734H44.7762L44.4041 87.468Z" fill="#6C6132"/>
<path d="M35.8468 23.1296H31.217V32.389H35.8468C38.3995 32.389 40.4764 30.3123 40.4764 27.7594C40.4764 25.2066 38.3995 23.1296 35.8468 23.1296Z" fill="#6C6132"/>
<path d="M33.9263 0C15.2194 0 0 15.2192 0 33.9263C0 52.6334 15.2194 67.8527 33.9263 67.8527C52.6333 67.8527 67.8527 52.6334 67.8527 33.9263C67.8527 15.2192 52.6333 0 33.9263 0ZM35.847 38.1947H31.2172V50.9826H25.4118V17.3243H35.847C41.6007 17.3243 46.282 22.0053 46.282 27.7593C46.282 33.5134 41.6007 38.1947 35.847 38.1947Z" fill="#6C6132"/>
</svg>
