<svg width="77" height="77" viewBox="0 0 77 77" fill="none" xmlns="http://www.w3.org/2000/svg">
<g clip-path="url(#clip0)">
<path d="M33.275 2.81907C37.0338 6.57784 37.0338 12.672 33.275 16.4307C29.5162 20.1895 23.4221 20.1895 19.6633 16.4307C15.9045 12.672 15.9045 6.57784 19.6633 2.81907C23.4221 -0.939692 29.5162 -0.939692 33.275 2.81907Z" fill="#6C6132"/>
<path d="M16.4312 19.6628C20.19 23.4216 20.19 29.5157 16.4312 33.2745C12.6725 37.0333 6.57833 37.0333 2.81956 33.2745C-0.939204 29.5157 -0.939204 23.4216 2.81956 19.6628C6.57833 15.9041 12.6726 15.9041 16.4312 19.6628Z" fill="#6C6132"/>
<path d="M57.337 2.81907C61.0958 6.57784 61.0958 12.672 57.337 16.4307C53.5782 20.1895 47.4841 20.1895 43.7253 16.4307C39.9666 12.672 39.9666 6.57784 43.7253 2.81907C47.4842 -0.939692 53.5784 -0.939692 57.337 2.81907Z" fill="#6C6132"/>
<path d="M74.1803 19.6628C77.939 23.4216 77.939 29.5157 74.1803 33.2745C70.4215 37.0333 64.3274 37.0333 60.5686 33.2745C56.8098 29.5157 56.8098 23.4216 60.5686 19.6628C64.3274 15.9041 70.4215 15.9041 74.1803 19.6628Z" fill="#6C6132"/>
<path d="M59.0044 41.9325C58.0857 41.3027 57.5217 40.485 57.3267 39.5005C56.1988 33.7646 52.6669 29.0414 47.3799 26.2028C41.9049 23.2655 35.0973 23.2632 29.6176 26.2052C24.3329 29.0414 20.8011 33.7646 19.6732 39.5005C19.4781 40.485 18.9143 41.3028 17.9954 41.9325C11.6157 46.2961 8.5398 53.7568 9.96614 61.4055C11.3549 68.8497 17.2741 74.9358 24.6972 76.5477C26.093 76.8486 27.4911 76.999 28.8751 76.999C31.6126 76.999 34.3008 76.4138 36.8058 75.2577C37.8679 74.7689 39.1344 74.7689 40.192 75.2577C43.9681 77.0013 48.1556 77.4478 52.3053 76.5454C59.7261 74.9358 65.6453 68.8497 67.034 61.4031C68.4602 53.7568 65.3843 46.2961 59.0044 41.9325Z" fill="#6C6132"/>
</g>
<defs>
<clipPath id="clip0">
<rect width="77" height="77" fill="white"/>
</clipPath>
</defs>
</svg>
