<svg width="80" height="80" viewBox="0 0 80 80" fill="none" xmlns="http://www.w3.org/2000/svg">
<path d="M68.1826 34.0913V14.2046C68.1826 12.6356 66.9106 11.3637 65.3416 11.3637H45.4551C45.4551 5.08772 40.3674 0 34.0913 0C27.8152 0 22.7275 5.08772 22.7275 11.3638H2.841C1.27193 11.3638 0 12.6357 0 14.2046V34.4946C0.925692 34.2388 1.88051 34.1033 2.841 34.0913C9.11709 34.0913 14.2048 39.179 14.2048 45.4551C14.2048 51.7312 9.11709 56.8189 2.841 56.8189C1.88051 56.8068 0.925692 56.6713 0 56.4154V76.7054C0 78.2745 1.27193 79.5464 2.841 79.5464H23.131C22.8751 78.6207 22.7396 77.6659 22.7276 76.7054C22.7276 70.4293 27.8154 65.3416 34.0914 65.3416C40.3675 65.3416 45.4553 70.4293 45.4553 76.7054C45.4433 77.6657 45.3076 78.6205 45.0519 79.5464H65.3419C66.911 79.5464 68.1829 78.2745 68.1829 76.7054V56.8188C74.459 56.8188 79.5467 51.731 79.5467 45.4549C79.5467 39.1788 74.4587 34.0913 68.1826 34.0913Z" fill="#6C6132"/>
</svg>
