<svg width="68" height="68" viewBox="0 0 68 68" fill="none" xmlns="http://www.w3.org/2000/svg">
<path d="M68 4.49011V63.5098C67.9923 63.5679 67.9761 63.6245 67.952 63.6779C67.7522 64.8886 67.1278 65.9886 66.1906 66.7806C65.2533 67.5726 64.0646 68.0049 62.8376 68H5.13842C3.7817 67.9937 2.48198 67.4536 1.52038 66.4965C0.558782 65.5394 0.0126064 64.2422 0 62.8856V5.16243C0.00324086 4.02365 0.381196 2.91759 1.07553 2.01496C1.76986 1.11233 2.74196 0.463315 3.84181 0.168079L4.56215 0H63.4619L63.63 0.0480226C65.743 0.464218 67.1356 1.68879 67.8079 3.72175C67.8916 3.97255 67.9558 4.22943 68 4.49011ZM33.904 60.8446H59.7641C59.9313 60.8384 60.0956 60.7993 60.2476 60.7296C60.3997 60.6598 60.5365 60.5608 60.6502 60.4382C60.7639 60.3155 60.8524 60.1716 60.9105 60.0148C60.9685 59.8579 60.9951 59.6911 60.9887 59.524V48.5268C60.9909 48.3288 60.9476 48.1329 60.8623 47.9542C60.777 47.7754 60.6519 47.6186 60.4966 47.4958C60.3413 47.3729 60.1599 47.2872 59.9663 47.2454C59.7727 47.2035 59.5722 47.2065 59.38 47.2542L54.6977 48.2387L41.8757 50.9519L26.3164 54.2655L13.3983 57.0028L7.80367 58.2034C7.46387 58.2782 7.16733 58.4841 6.9785 58.7763C6.78966 59.0686 6.7238 59.4236 6.7952 59.7641C6.93927 60.4364 7.44351 60.8446 8.23588 60.8446H33.904ZM33.3757 25.8602C33.3277 24.9637 33.2797 24.0993 33.2316 23.2669C33.2163 22.3837 33.1522 21.5019 33.0396 20.6257C32.8794 19.6953 32.3923 18.8526 31.6659 18.2495C30.9396 17.6464 30.0217 17.3225 29.0777 17.3361C27.1328 17.3602 25.428 18.8008 25.1879 20.6977C25.1159 21.4403 25.1159 22.1882 25.1879 22.9308C25.3319 26.2924 25.524 29.6539 25.6921 33.0155C25.7152 33.4466 25.7877 33.8736 25.9082 34.2881C26.1432 35.1329 26.6535 35.8751 27.3581 36.3971C28.0627 36.919 28.9214 37.1909 29.798 37.1695H40.2669C40.3238 37.1592 40.3821 37.1604 40.4385 37.173C40.4949 37.1857 40.5481 37.2095 40.5951 37.2431C40.6421 37.2766 40.6819 37.3193 40.7122 37.3685C40.7424 37.4177 40.7625 37.4725 40.7712 37.5296C41.0593 38.37 41.3955 39.2104 41.6836 40.0748C42.428 42.0678 43.1483 44.0607 43.8686 46.0536C44.3489 47.3743 45.6695 48.0226 46.9181 47.5904L51.2161 46.0296C51.5707 45.8529 51.8476 45.5516 51.9939 45.1834C52.1401 44.8152 52.1452 44.4059 52.0084 44.0341C51.8716 43.6623 51.6024 43.3541 51.2523 43.1685C50.9023 42.9828 50.4961 42.9329 50.1116 43.0282L48.7429 43.5325L48.1427 43.7246L48.0706 43.5325C46.9181 40.339 45.7415 37.1455 44.565 33.9279C44.1328 32.7274 43.2444 32.1031 41.9718 32.1031H33.6879C33.6398 31.0706 33.5918 30.0621 33.5198 29.0296H40.459C40.8793 29.0392 41.2862 28.8814 41.5902 28.591C41.8941 28.3005 42.0703 27.9012 42.0798 27.4809C42.0894 27.0606 41.9316 26.6537 41.6411 26.3498C41.3507 26.0458 40.9514 25.8697 40.5311 25.8602C38.274 25.8361 36.017 25.8602 33.7359 25.8602H33.3757ZM15.3912 37.7217C15.4153 38.322 15.4393 38.8743 15.5113 39.4025C15.5543 39.8803 15.6346 40.354 15.7514 40.8192C16.5375 44.3842 18.6761 47.5052 21.7171 49.5251C24.7581 51.5449 28.4642 52.3061 32.0551 51.6483C36.137 50.9279 39.2585 48.7429 41.4915 45.2613C41.6093 45.0756 41.6983 44.8732 41.7556 44.661C41.8168 44.2972 41.7511 43.9235 41.5695 43.6024C41.3879 43.2813 41.1014 43.0323 40.7581 42.8973C40.4149 42.7622 40.0356 42.7492 39.6839 42.8605C39.3322 42.9718 39.0294 43.2005 38.8263 43.5084C38.3114 44.3384 37.6898 45.0973 36.9774 45.7655C34.4322 48.0946 31.4308 49.031 28.0212 48.5748C25.5544 48.2494 23.2755 47.0826 21.5694 45.2715C19.8632 43.4604 18.8345 41.116 18.6568 38.6342C18.3686 34.7683 19.8093 31.6229 22.7867 29.1737C23.0133 29.0109 23.2298 28.8345 23.435 28.6455C23.7439 28.3589 23.9263 27.9614 23.942 27.5403C23.9578 27.1193 23.8056 26.7093 23.5191 26.4004C23.2325 26.0916 22.835 25.9092 22.4139 25.8934C21.9929 25.8777 21.5829 26.0298 21.274 26.3164C17.4562 29.1737 15.5353 33.0155 15.3912 37.7217ZM29.0297 16.2316C30.0896 16.2384 31.11 15.8301 31.8728 15.0943C32.6356 14.3584 33.0802 13.3532 33.1116 12.2938C33.1836 10.1328 31.4068 8.28389 29.1977 8.18785C28.6453 8.1351 28.0879 8.19692 27.5604 8.36943C27.0329 8.54194 26.5467 8.82143 26.1322 9.19043C25.7177 9.55943 25.3838 10.01 25.1513 10.5139C24.9189 11.0179 24.7929 11.5644 24.7813 12.1192C24.7697 12.6741 24.8728 13.2253 25.0839 13.7385C25.2951 14.2518 25.6099 14.7159 26.0087 15.1019C26.4074 15.4879 26.8815 15.7874 27.4014 15.9818C27.9212 16.1762 28.4755 16.2613 29.0297 16.2316Z" fill="#6C6132"/>
</svg>
