<svg width="68" height="68" viewBox="0 0 68 68" fill="none" xmlns="http://www.w3.org/2000/svg">
<path d="M24.2906 11.287C25.155 10.6533 25.1301 10.7015 31.2082 7.26382C31.2214 7.25719 31.2334 7.24923 31.2466 7.2426C28.0591 2.75776 22.8553 0 17.2138 0C7.72279 0 0 7.72279 0 17.2138V66.9874C0 67.3535 0.297132 67.6507 0.663242 67.6507H7.29566C7.66177 67.6507 7.9589 67.3535 7.9589 66.9874V17.2138C7.9589 12.0896 12.1453 7.92441 17.2774 7.9589C20.0286 7.97747 22.5661 9.24294 24.2906 11.287Z" fill="#6C6132"/>
<path d="M37.4362 46.639C38.52 46.4582 39.2523 45.4329 39.0716 44.3491L38.7642 42.506C38.5836 41.4222 37.5583 40.6901 36.4743 40.8706C35.3905 41.0514 34.6582 42.0767 34.8389 43.1605L35.1463 45.0035C35.3269 46.0874 36.352 46.8196 37.4362 46.639Z" fill="#6C6132"/>
<path d="M47.528 41.1106C48.4863 40.5728 48.8272 39.3599 48.2893 38.4016L47.429 36.8689C46.8912 35.9105 45.6784 35.5696 44.7201 36.1076C43.7619 36.6454 43.4209 37.8583 43.9588 38.8165L44.8191 40.3493C45.3573 41.3085 46.5709 41.6478 47.528 41.1106Z" fill="#6C6132"/>
<path d="M57.5038 35.3763C58.2228 34.5452 58.1319 33.2886 57.3009 32.5697L55.8878 31.3472C55.0566 30.6284 53.8003 30.7192 53.0812 31.5501C52.3622 32.3812 52.4531 33.6378 53.2841 34.3567L54.6972 35.5792C55.5285 36.2982 56.7849 36.2072 57.5038 35.3763Z" fill="#6C6132"/>
<path d="M39.6153 54.3143C39.4567 53.227 38.4469 52.4742 37.3593 52.6323C36.2718 52.7908 35.5188 53.8008 35.6773 54.8883L35.9559 56.7995C36.1147 57.8881 37.1257 58.6398 38.2118 58.4814C39.2993 58.3229 40.0523 57.3129 39.8938 56.2255L39.6153 54.3143Z" fill="#6C6132"/>
<path d="M48.3467 48.8857C47.9348 47.8669 46.7751 47.3749 45.7563 47.7866C44.7375 48.1984 44.2455 49.3582 44.6572 50.377L45.3384 52.0621C45.7504 53.0814 46.9104 53.5729 47.9287 53.1613C48.9476 52.7495 49.4396 51.5896 49.0278 50.5709L48.3467 48.8857Z" fill="#6C6132"/>
<path d="M56.9552 43.4752C56.3 42.593 55.0538 42.4089 54.1715 43.064C53.2893 43.7192 53.1052 44.9654 53.7603 45.8477L54.8439 47.3069C55.4991 48.1893 56.7456 48.3732 57.6276 47.7181C58.5098 47.063 58.6939 45.8168 58.0388 44.9345L56.9552 43.4752Z" fill="#6C6132"/>
<path d="M66.9704 39.3937L65.4842 38.1603C64.6386 37.4585 63.3841 37.5752 62.6823 38.4207C61.9804 39.2663 62.0972 40.5208 62.9427 41.2226L64.4289 42.456C65.2746 43.1578 66.5291 43.0411 67.2308 42.1956C67.9326 41.3498 67.8159 40.0955 66.9704 39.3937Z" fill="#6C6132"/>
<path d="M24.6435 27.9848L46.7971 15.4535L46.1643 14.3339C43.5822 9.76541 37.7795 8.12004 33.1674 10.7272C27.187 14.109 27.0919 14.1115 26.2604 14.7929C22.8105 17.6109 21.642 22.6823 24.0094 26.8639L24.6435 27.9848Z" fill="#6C6132"/>
<path d="M54.7361 19.8865L53.858 18.3346C53.3144 17.3688 52.0834 17.0351 51.1281 17.5758C49.9777 18.225 24.7712 32.4824 24.2363 32.7853C23.2836 33.3224 22.9317 34.5459 23.4788 35.5152L24.357 37.0685C25.0908 38.3657 26.7343 38.8214 28.0327 38.0886L53.716 23.5622C55.0117 22.828 55.4708 21.1854 54.7361 19.8865Z" fill="#6C6132"/>
</svg>
