<svg width="69" height="61" viewBox="0 0 69 61" fill="none" xmlns="http://www.w3.org/2000/svg">
<path d="M63.4472 0H4.98141C2.23619 0 0 2.23429 0 4.98141V42.6576C0 45.4034 2.23619 47.639 4.98141 47.639H32.9145V57.7083H23.982C23.2644 57.7083 22.6829 58.2894 22.6829 59.0074C22.6829 59.7245 23.2646 60.3066 23.982 60.3066H44.2831C45 60.3066 45.5822 59.7243 45.5822 59.0074C45.5822 58.2894 44.9998 57.7083 44.2831 57.7083H35.5131V47.639H63.4459C66.1916 47.639 68.4271 45.4034 68.4271 42.6576V4.98141C68.4284 2.23302 66.1941 0 63.4472 0Z" fill="#6C6132"/>
</svg>
