<svg width="46" height="46" viewBox="0 0 46 46" fill="none" xmlns="http://www.w3.org/2000/svg">
<g clip-path="url(#clip0)">
<path d="M36.2694 19.6827H9.73097L8.13867 26.7596H37.8617L36.2694 19.6827Z" fill="#6C6132"/>
<path d="M42.0192 5.97119H3.9808C1.78573 5.97119 0 7.75693 0 9.9519V22.7788C0 24.9738 1.78573 26.7596 3.9808 26.7596H5.4183L7.37473 18.0645C7.51094 17.459 8.04865 17.0288 8.66929 17.0288H37.3308C37.9514 17.0288 38.4892 17.459 38.6254 18.0645L40.5818 26.7596H42.0193C44.2143 26.7596 46.0001 24.9739 46.0001 22.7788V9.9519C46 7.75693 44.2143 5.97119 42.0192 5.97119ZM30.0769 15.2596H28.3077C27.5748 15.2596 26.9808 14.6655 26.9808 13.9327C26.9808 13.1999 27.5749 12.6058 28.3077 12.6058H30.0769C30.8098 12.6058 31.4038 13.1999 31.4038 13.9327C31.4038 14.6655 30.8098 15.2596 30.0769 15.2596ZM36.2692 15.2596H34.5C33.7671 15.2596 33.1731 14.6655 33.1731 13.9327C33.1731 13.1999 33.7672 12.6058 34.5 12.6058H36.2692C37.0021 12.6058 37.5961 13.1999 37.5961 13.9327C37.5961 14.6655 37.0021 15.2596 36.2692 15.2596Z" fill="#6C6132"/>
<path d="M23.8843 32.8042C23.8843 32.4347 23.9532 32.3198 24.1375 32.0128C24.3889 31.5938 24.7689 30.9606 24.7689 29.8558C24.7689 29.123 24.1747 28.5289 23.442 28.5289C22.7092 28.5289 22.1151 29.1231 22.1151 29.8558C22.1151 30.2254 22.0462 30.3403 21.8619 30.6473C21.6104 31.0663 21.2305 31.6995 21.2305 32.8042C21.2305 33.909 21.6104 34.5423 21.8618 34.9614C22.0461 35.2686 22.1151 35.3835 22.1151 35.7531C22.1151 36.1227 22.0462 36.2378 21.8618 36.5448C21.6104 36.9639 21.2305 37.5972 21.2305 38.7019C21.2305 39.4348 21.8246 40.0288 22.5574 40.0288C23.2901 40.0288 23.8843 39.4347 23.8843 38.7019C23.8843 38.3322 23.9532 38.2172 24.1375 37.9102C24.3889 37.4912 24.7689 36.8579 24.7689 35.7531C24.7689 34.6483 24.3889 34.0151 24.1375 33.5959C23.9533 33.2889 23.8843 33.1739 23.8843 32.8042Z" fill="#6C6132"/>
<path d="M16.8081 32.8042C16.8081 32.4347 16.877 32.3198 17.0613 32.0128C17.3128 31.5938 17.6927 30.9606 17.6927 29.8558C17.6927 29.123 17.0986 28.5289 16.3658 28.5289C15.633 28.5289 15.0389 29.1231 15.0389 29.8558C15.0389 30.2254 14.97 30.3403 14.7857 30.6473C14.5342 31.0663 14.1543 31.6995 14.1543 32.8042C14.1543 33.909 14.5342 34.5423 14.7856 34.9614C14.9699 35.2686 15.0389 35.3835 15.0389 35.7531C15.0389 36.1227 14.97 36.2378 14.7856 36.5448C14.5342 36.9639 14.1543 37.5972 14.1543 38.7019C14.1543 39.4348 14.7484 40.0288 15.4812 40.0288C16.214 40.0288 16.8081 39.4347 16.8081 38.7019C16.8081 38.3322 16.877 38.2172 17.0614 37.9102C17.3128 37.4912 17.6927 36.8579 17.6927 35.7531C17.6927 34.6483 17.3128 34.0151 17.0614 33.5959C16.8771 33.2889 16.8081 33.1739 16.8081 32.8042Z" fill="#6C6132"/>
<path d="M30.9614 32.8042C30.9614 32.4347 31.0303 32.3198 31.2146 32.0128C31.4661 31.5938 31.846 30.9606 31.846 29.8558C31.846 29.123 31.2519 28.5289 30.5191 28.5289C29.7864 28.5289 29.1922 29.1231 29.1922 29.8558C29.1922 30.2254 29.1233 30.3403 28.939 30.6473C28.6876 31.0663 28.3076 31.6995 28.3076 32.8042C28.3076 33.909 28.6876 34.5423 28.939 34.9614C29.1232 35.2686 29.1922 35.3835 29.1922 35.7531C29.1922 36.1227 29.1233 36.2378 28.939 36.5448C28.6876 36.9639 28.3076 37.5972 28.3076 38.7019C28.3076 39.4348 28.9018 40.0288 29.6345 40.0288C30.3673 40.0288 30.9614 39.4347 30.9614 38.7019C30.9614 38.3322 31.0303 38.2172 31.2147 37.9102C31.4661 37.4912 31.846 36.8579 31.846 35.7531C31.846 34.6483 31.4661 34.0151 31.2147 33.5959C31.0304 33.2889 30.9614 33.1739 30.9614 32.8042Z" fill="#6C6132"/>
</g>
<defs>
<clipPath id="clip0">
<rect width="46" height="46" fill="white"/>
</clipPath>
</defs>
</svg>
