<svg width="52" height="52" viewBox="0 0 52 52" fill="none" xmlns="http://www.w3.org/2000/svg">
<g clip-path="url(#clip0)">
<path d="M36.8759 22.5268C36.7085 22.5268 36.5368 22.5508 36.3651 22.5979L34.4241 23.1326L32.409 18.2231C31.8379 16.8323 30.1502 15.7006 28.6468 15.7006H9.78529C8.28171 15.7006 6.59419 16.8323 6.02329 18.2231L4.01063 23.1257L2.09375 22.5978C1.92222 22.5506 1.75049 22.5266 1.58315 22.5266C0.665735 22.5266 0 23.2274 0 24.1927V25.3368C0 26.4637 0.917031 27.3808 2.04395 27.3808H2.26357L1.93824 28.1732C1.40779 29.465 0.975991 31.6528 0.975991 33.0499V42.8032C0.975991 43.9301 1.89302 44.8471 3.01994 44.8471H5.68937C6.81629 44.8471 7.73332 43.9301 7.73332 42.8032V40.3677H30.6986V42.8032C30.6986 43.9301 31.6156 44.8471 32.7425 44.8471H35.4116C36.5385 44.8471 37.4555 43.9301 37.4555 42.8032V33.0501C37.4555 31.6532 37.0237 29.4654 36.4933 28.1734L36.168 27.381H36.4149C37.5418 27.381 38.4588 26.4639 38.4588 25.337V24.1929C38.459 23.2276 37.7931 22.5268 36.8759 22.5268ZM5.47585 26.2708L8.52461 18.8449C8.86616 18.013 9.88126 17.3322 10.7806 17.3322H27.6516C28.5508 17.3322 29.5659 18.0128 29.9075 18.8449L32.9562 26.2708C33.2976 27.1028 32.8414 27.7836 31.9421 27.7836H6.4902C5.59072 27.7834 5.13449 27.1028 5.47585 26.2708ZM12.2815 35.6638C12.2815 36.1136 11.9134 36.4813 11.464 36.4813H5.67258C5.22284 36.4813 4.85496 36.1134 4.85496 35.6638V32.8845C4.85496 32.4349 5.22284 32.0671 5.67258 32.0671H11.464C11.9134 32.0671 12.2815 32.4349 12.2815 32.8845V35.6638ZM33.5222 35.6638C33.5222 36.1136 33.1541 36.4813 32.7048 36.4813H26.9133C26.464 36.4813 26.0959 36.1134 26.0959 35.6638V32.8845C26.0959 32.4349 26.464 32.0671 26.9133 32.0671H32.7048C33.1541 32.0671 33.5222 32.4349 33.5222 32.8845V35.6638Z" fill="#6C6132"/>
<path d="M49.4432 7.15271H39.7625C38.3528 7.15271 37.2061 8.29967 37.2061 9.70918V19.3901C37.2061 20.7998 38.353 21.9467 39.7625 21.9467H43.6487V43.6746C43.6487 44.2016 44.0758 44.6287 44.6028 44.6287C45.1298 44.6287 45.5568 44.2016 45.5568 43.6746V21.9469H49.4432C50.8529 21.9469 51.9997 20.8 51.9997 19.3903V9.70937C51.9997 8.29967 50.8529 7.15271 49.4432 7.15271ZM47.2507 15.1795C46.6939 15.6808 45.8738 15.9349 44.8133 15.9349H43.4114C43.2431 15.9349 43.1061 16.0721 43.1061 16.2404V18.6043C43.1061 18.8612 42.8971 19.0699 42.6403 19.0699H41.5786C41.3216 19.0699 41.1129 18.861 41.1129 18.6043V10.4959C41.1129 10.2389 41.3218 10.0299 41.5786 10.0299H44.253C46.0247 10.0299 46.686 10.2969 47.2295 10.7581C47.8027 11.2444 48.0931 11.9894 48.0931 12.9726C48.0929 13.9333 47.8097 14.6756 47.2507 15.1795Z" fill="#6C6132"/>
<path d="M45.7335 11.9876C45.4748 11.7922 45.017 11.693 44.3732 11.693H43.4117C43.2434 11.693 43.1064 11.83 43.1064 11.9981V13.9409C43.1064 14.109 43.2434 14.246 43.4117 14.246H43.9878C44.1994 14.246 44.5413 14.2304 44.7499 14.2111C44.9523 14.1926 45.5238 14.1098 45.7335 13.9514C45.9852 13.761 46.1128 13.4317 46.1128 12.9728C46.1128 12.5095 45.9852 12.178 45.7335 11.9876Z" fill="#6C6132"/>
</g>
<defs>
<clipPath id="clip0">
<rect width="52" height="52" fill="white"/>
</clipPath>
</defs>
</svg>
