<svg height="511pt" viewBox="0 -16 511.99994 511" width="511pt" xmlns="http://www.w3.org/2000/svg"><path d="m.148438 480.359375h112.269531l29.992187-29.992187h227.332032l29.988281 29.992187h112.269531v-89.972656h-511.851562zm0 0"/><path d="m256.074219 150.457031c-41.386719 0-74.976563 33.589844-74.976563 74.976563 0 41.386718 33.589844 74.976562 74.976563 74.976562s74.980469-33.589844 74.980469-74.976562c0-41.386719-33.59375-74.976563-74.980469-74.976563zm14.09375 124.761719-28.1875-9.597656 8.394531-25.191406h-29.988281l21.59375-64.78125 28.1875 9.597656-8.394531 25.191406h29.992187zm0 0"/><path d="m.148438 90.472656v269.921875h511.851562v-269.921875zm255.925781 239.929688c-57.882813 0-104.96875-47.085938-104.96875-104.96875 0-57.882813 47.085937-104.96875 104.96875-104.96875 57.882812 0 104.96875 47.085937 104.96875 104.96875 0 57.882812-47.085938 104.96875-104.96875 104.96875zm0 0"/><path d="m31.140625 60.480469h119.964844v-29.988281h29.992187v-29.992188c-4.359375 0-187.058594 0-180.949218 0v29.992188h30.992187zm0 0"/></svg>