<svg width="68" height="105" viewBox="0 0 68 105" fill="none" xmlns="http://www.w3.org/2000/svg">
<path d="M0 38.5828C1.57232 55.9189 16.1878 69.5462 33.9263 69.5462C51.6649 69.5462 66.2805 55.9189 67.8527 38.5828H0Z" fill="#6C6132"/>
<path d="M57.4007 101.23L51.7246 71.5991C49.8455 72.5288 47.8853 73.3184 45.8558 73.9491L47.451 82.2763H20.3998L21.9943 73.9483C19.9644 73.3174 18.0042 72.5276 16.1253 71.5979L10.4522 101.231C10.1299 102.914 11.2331 104.54 12.9165 104.862C13.1136 104.9 13.3097 104.918 13.5034 104.918C14.9624 104.918 16.2632 103.884 16.5478 102.398L19.2117 88.4826H48.64L51.3055 102.398C51.5901 103.884 52.8905 104.918 54.3497 104.918C54.5434 104.918 54.7399 104.9 54.937 104.862C56.62 104.539 57.7231 102.914 57.4007 101.23Z" fill="#6C6132"/>
<path d="M22.0135 16.0244C22.7414 15.2761 24.501 13.2238 25.1219 10.3368C25.6346 7.95257 25.5034 4.37883 21.9674 0.893207C20.7471 -0.309856 18.7822 -0.295921 17.5791 0.924764C16.3761 2.14504 16.3902 4.10998 17.6107 5.31304C19.2697 6.94848 19.2291 8.21855 19.0543 9.03207C18.7564 10.4169 17.7609 11.495 17.5644 11.697C16.8365 12.4456 15.0769 14.4976 14.4562 17.3847C13.9435 19.7689 14.0747 23.3428 17.6105 26.8282C18.2152 27.4241 19.0021 27.7212 19.7889 27.7212C20.5906 27.7212 21.3918 27.4126 21.9988 26.7967C23.202 25.5762 23.1877 23.6114 21.9674 22.4082C20.3082 20.7727 20.349 19.5027 20.5238 18.6892C20.8217 17.3047 21.817 16.2267 22.0135 16.0244Z" fill="#6C6132"/>
<path d="M36.1508 16.0244C36.8786 15.2761 38.6382 13.2238 39.2591 10.3368C39.7718 7.95257 39.6407 4.37883 36.1047 0.893207C34.8844 -0.309856 32.9196 -0.295921 31.7164 0.924764C30.5133 2.14504 30.5274 4.10998 31.7479 5.31304C33.4071 6.94848 33.3666 8.21855 33.1916 9.03207C32.8938 10.4169 31.8983 11.495 31.7018 11.697C30.974 12.4456 29.2143 14.4976 28.5937 17.3847C28.081 19.7689 28.2121 23.3428 31.7479 26.8282C32.3526 27.4241 33.1395 27.7212 33.9264 27.7212C34.7278 27.7212 35.5292 27.4126 36.136 26.7967C37.3393 25.5762 37.3251 23.6114 36.1047 22.4082C34.4454 20.7727 34.4862 19.5027 34.661 18.6892C34.959 17.3047 35.9542 16.2267 36.1508 16.0244Z" fill="#6C6132"/>
<path d="M50.2882 16.0244C51.016 15.2761 52.7756 13.2238 53.3965 10.3368C53.9092 7.95257 53.7781 4.37883 50.2421 0.893207C49.022 -0.309856 47.0568 -0.295921 45.8538 0.924764C44.6507 2.14504 44.6649 4.10998 45.8853 5.31304C47.5443 6.94848 47.5038 8.21855 47.329 9.03207C47.031 10.4169 46.0355 11.495 45.839 11.697C45.1112 12.4456 43.3516 14.4976 42.7309 17.3847C42.2182 19.7689 42.3493 23.3428 45.8851 26.8282C46.4898 27.4241 47.2767 27.7212 48.0636 27.7212C48.865 27.7212 49.6665 27.4126 50.2734 26.7967C51.4767 25.5762 51.4623 23.6114 50.2419 22.4082C48.5827 20.7727 48.6234 19.5027 48.7982 18.6892C49.0964 17.3047 50.0917 16.2267 50.2882 16.0244Z" fill="#6C6132"/>
</svg>
