<svg id="Capa_1" enable-background="new 0 0 511.992 511.992" height="512" viewBox="0 0 511.992 511.992" width="512" xmlns="http://www.w3.org/2000/svg"><g><path d="m45.996 511.992h420c8.284 0 15-6.716 15-15v-25.2c0-45.4-28.865-85.367-71.746-99.427l-91.358-30.53c23.291-17.118 38.864-43.579 42.358-73.156 17.849-5.976 30.746-22.853 30.746-42.687 0-19.556-12.539-36.239-30-42.43v-41.357l25.606-25.606c4.531-4.524 5.639-11.555 2.854-17.226l-30-61c-1.684-3.443-4.873-6.324-8.717-7.61l-90-30c-1.358-.454-3.081-.763-4.745-.763-1.608 0-3.418.321-4.74.762l-90 30c-.016.005-.03.013-.046.018-3.62 1.22-6.848 3.92-8.648 7.552-.007.014-.016.026-.022.04l-30 61c-2.859 5.822-1.557 12.822 2.854 17.226l25.606 25.606v41.357c-17.461 6.191-30 22.873-30 42.43 0 19.833 12.897 36.711 30.746 42.687 3.494 29.578 19.067 56.039 42.358 73.157l-91.277 30.503c-42.962 14.086-71.827 54.053-71.827 99.453v25.2c-.002 8.286 6.714 15.001 14.998 15.001zm200.812-30 9.188-27.565 9.188 27.565zm204.188-10.199v10.2h-154.188l-15.129-45.388 27.61 13.805c6.751 3.376 14.984 1.211 19.188-5.096l37.243-55.864 34.104 11.397c30.607 10.035 51.172 38.546 51.172 70.946zm-114.763-92.197-25.373 38.058-34.74-17.37 17.469-34.939zm-159.544-322.356 79.308-26.436 79.308 26.436 22.494 45.738-18.015 18.015h-167.575l-18.015-18.015zm140.272 93.752c-12.798 14.155-33.299 30-60.965 30s-48.167-15.845-60.965-30zm-135.965 105c0-8.284-6.716-15-15-15-8.271 0-15-6.729-15-15s6.729-15 15-15c8.284 0 15-6.716 15-15v-16.313c17.086 16.084 41.979 31.313 75 31.313s57.914-15.229 75-31.313v16.313c0 8.284 6.716 15 15 15 8.271 0 15 6.729 15 15s-6.729 15-15 15c-8.284 0-15 6.716-15 15 0 32.44-20.077 61.272-49.961 71.744-6.014 2.107-10.039 7.784-10.039 14.156v1.56l-15 29.999-15-29.999v-1.56c0-6.372-4.025-12.049-10.039-14.156-29.884-10.471-49.961-39.303-49.961-71.744zm37.406 109.353 17.469 34.939-34.74 17.37-25.373-38.058zm-157.406 106.448c0-32.4 20.565-60.911 51.254-70.973l34.023-11.37 37.242 55.864c4.203 6.305 12.433 8.473 19.188 5.096l27.61-13.805-15.129 45.388h-154.188z"/><circle cx="255.996" cy="75.992" r="15"/></g></svg>