<svg width="68" height="73" viewBox="0 0 68 73" fill="none" xmlns="http://www.w3.org/2000/svg">
<path d="M24.0733 4.72406C22.2413 7.48706 21.2324 11.0895 21.2324 14.8678C21.2324 19.9944 24.8853 24.2833 29.7248 25.2696V44.0603C27.2537 44.9367 25.4786 47.2964 25.4786 50.0644V66.1047C25.4786 69.6167 28.3357 72.474 31.8479 72.474C35.3598 72.474 38.2172 69.6168 38.2172 66.1047V50.0644C38.2172 47.2964 36.4422 44.9367 33.971 44.0603V25.2696C38.8104 24.2833 42.4634 19.9944 42.4634 14.8678C42.4634 11.1033 41.4548 7.50617 39.6233 4.73892C35.4487 -1.56866 28.257 -1.58565 24.0733 4.72406Z" fill="#6C6132"/>
<path d="M14.4907 0.0388543C14.3437 0.0650392 10.8486 0.704941 7.34734 2.94835C2.54064 6.02797 0 10.6065 0 16.189V45.8185C0 46.991 0.950582 47.9416 2.1231 47.9416H16.9854V2.12926C16.9854 0.807699 15.7893 -0.191856 14.4907 0.0388543Z" fill="#6C6132"/>
<path d="M65.8181 0.00585938C64.6456 0.00585938 63.695 0.956441 63.695 2.12896V8.49896H59.4488V2.12896C59.4488 0.956441 58.4982 0.00585938 57.3257 0.00585938C56.1532 0.00585938 55.2026 0.956441 55.2026 2.12896V8.49896H50.9564V2.12896C50.9564 0.956441 50.0058 0.00585938 48.8333 0.00585938C47.6608 0.00585938 46.7102 0.956441 46.7102 2.12896V16.9909C46.7102 21.6736 50.5199 25.4833 55.2026 25.4833V44.0603C52.7315 44.9367 50.9564 47.2965 50.9564 50.0644V66.1047C50.9564 69.6167 53.8135 72.474 57.3257 72.474C60.8379 72.474 63.695 69.6169 63.695 66.1047V50.0644C63.695 47.2965 61.9199 44.9367 59.4488 44.0603V25.4833C64.1315 25.4833 67.9412 21.6736 67.9412 16.9909V2.12896C67.9412 0.956441 66.9907 0.00585938 65.8181 0.00585938Z" fill="#6C6132"/>
<path d="M4.24683 66.1047C4.24683 69.6167 7.10395 72.474 10.6161 72.474C14.1281 72.474 16.9854 69.6169 16.9854 66.1047V52.1875H4.24683V66.1047Z" fill="#6C6132"/>
</svg>
