<svg width="35" height="35" viewBox="0 0 35 35" fill="none" xmlns="http://www.w3.org/2000/svg">
<path d="M12.3162 6.24705C12.7511 5.92824 12.7385 5.95253 15.7959 4.22329C15.8026 4.21996 15.8086 4.21595 15.8153 4.21262C14.2119 1.95666 11.5943 0.569458 8.7565 0.569458C3.98236 0.569458 0.0976562 4.45416 0.0976562 9.2283V34.2653C0.0976562 34.4495 0.247119 34.599 0.431279 34.599H3.7675C3.95166 34.599 4.10113 34.4495 4.10113 34.2653V9.2283C4.10113 6.65073 6.20695 4.55558 8.78852 4.57293C10.1724 4.58227 11.4488 5.21882 12.3162 6.24705Z" fill="#6C6132"/>
<path d="M18.9286 24.0297C19.4738 23.9388 19.8422 23.4231 19.7513 22.8779L19.5967 21.9508C19.5058 21.4056 18.9901 21.0373 18.4448 21.1281C17.8996 21.2191 17.5313 21.7348 17.6222 22.28L17.7768 23.2071C17.8677 23.7523 18.3833 24.1206 18.9286 24.0297Z" fill="#6C6132"/>
<path d="M24.0047 21.2488C24.4867 20.9783 24.6582 20.3681 24.3876 19.8861L23.9549 19.1151C23.6843 18.633 23.0743 18.4616 22.5922 18.7322C22.1102 19.0027 21.9387 19.6128 22.2093 20.0948L22.642 20.8658C22.9128 21.3483 23.5233 21.519 24.0047 21.2488Z" fill="#6C6132"/>
<path d="M29.0233 18.3643C29.385 17.9463 29.3392 17.3142 28.9212 16.9526L28.2104 16.3377C27.7923 15.9761 27.1604 16.0218 26.7986 16.4397C26.437 16.8578 26.4827 17.4899 26.9007 17.8515L27.6115 18.4664C28.0297 18.8281 28.6617 18.7823 29.0233 18.3643Z" fill="#6C6132"/>
<path d="M20.0247 27.8906C19.9449 27.3436 19.4369 26.965 18.8899 27.0445C18.3429 27.1242 17.9641 27.6323 18.0438 28.1793L18.1839 29.1406C18.2638 29.6882 18.7724 30.0664 19.3187 29.9867C19.8657 29.907 20.2445 29.3989 20.1648 28.8519L20.0247 27.8906Z" fill="#6C6132"/>
<path d="M24.4173 25.1599C24.2102 24.6474 23.6268 24.3999 23.1143 24.607C22.6018 24.8141 22.3544 25.3976 22.5615 25.91L22.9041 26.7577C23.1113 27.2704 23.6949 27.5176 24.2071 27.3105C24.7196 27.1034 24.9671 26.52 24.76 26.0075L24.4173 25.1599Z" fill="#6C6132"/>
<path d="M28.7468 22.4383C28.4173 21.9945 27.7904 21.9019 27.3466 22.2314C26.9028 22.561 26.8102 23.1879 27.1398 23.6317L27.6848 24.3657C28.0144 24.8095 28.6414 24.902 29.0851 24.5725C29.5288 24.243 29.6215 23.6161 29.2919 23.1723L28.7468 22.4383Z" fill="#6C6132"/>
<path d="M33.7852 20.3852L33.0376 19.7648C32.6122 19.4117 31.9812 19.4704 31.6282 19.8957C31.2751 20.3211 31.3339 20.9521 31.7592 21.3052L32.5067 21.9256C32.9322 22.2786 33.5632 22.2199 33.9162 21.7946C34.2692 21.3692 34.2105 20.7382 33.7852 20.3852Z" fill="#6C6132"/>
<path d="M12.4938 14.6464L23.6374 8.3429L23.3192 7.77975C22.0203 5.48169 19.1014 4.65404 16.7815 5.96551C13.7732 7.66658 13.7254 7.66785 13.3071 8.01061C11.5718 9.42811 10.984 11.9791 12.1748 14.0825L12.4938 14.6464Z" fill="#6C6132"/>
<path d="M27.6305 10.5727L27.1888 9.79206C26.9154 9.30623 26.2962 9.13842 25.8156 9.41039C25.237 9.73694 12.5577 16.9087 12.2886 17.061C11.8093 17.3312 11.6323 17.9467 11.9076 18.4342L12.3493 19.2156C12.7184 19.8681 13.5451 20.0973 14.1982 19.7287L27.1174 12.4217C27.7692 12.0523 28.0001 11.2261 27.6305 10.5727Z" fill="#6C6132"/>
</svg>
