<svg width="121" height="31" viewBox="0 0 121 31" fill="none" xmlns="http://www.w3.org/2000/svg">
<path d="M0 7.77051H14.0567C14.5196 7.77051 14.7301 7.8537 14.688 8.3529C14.6459 8.85209 14.688 10.3913 14.688 11.3897C14.688 12.388 14.5196 11.972 14.0988 11.972C13.6779 11.972 12.0366 11.972 11.0265 11.972C10.0164 11.972 10.4373 12.0968 10.4373 12.5544C10.4373 15.716 10.4373 18.9192 10.4794 22.0807C10.4794 22.5799 10.311 22.7463 9.80601 22.7463H5.00822C4.58736 22.7463 4.4611 22.5799 4.4611 22.1639C4.50318 19.0855 4.4611 15.9656 4.4611 12.8456C4.4611 11.972 4.4611 11.972 3.5773 11.972H0V7.77051Z" fill="#6C6132"/>
<path d="M67.3911 0V30.5167H66.5835V29.9298C66.545 20.079 66.545 10.27 66.545 0.419186C66.5387 0.278152 66.5517 0.136881 66.5835 0H67.3911Z" fill="#6C6132"/>
<path d="M112.548 16.4935L113.556 14.1793C114.185 12.6646 114.815 11.192 115.487 9.67724C116.158 8.16252 117.711 7.02649 119.768 7.40517C120.062 7.48932 120.188 7.57347 120.23 7.91007C120.237 8.61935 120.094 9.32209 119.81 9.97176C117.669 14.6421 115.529 19.3546 113.43 24.067C113.262 24.3195 113.136 24.5719 112.8 24.614C112.464 24.6561 112.59 24.7823 112.59 24.8665C112.59 24.9506 112.213 25.7921 111.877 26.1708C111.685 26.4065 111.516 26.6602 111.373 26.9282L111.163 27.2227C110.774 27.4516 110.443 27.7686 110.198 28.1484C110.114 28.2746 109.736 28.2325 109.4 28.2746C109.064 28.3167 109.148 28.8216 108.393 28.8216H106.84L108.477 25.3293C109.106 24.025 109.736 22.7206 110.324 21.4163C110.366 21.3166 110.388 21.2092 110.388 21.1007C110.388 20.9922 110.366 20.8848 110.324 20.7852C108.435 17.7557 106.504 14.7684 104.615 11.781L104.405 11.5286C104.318 11.637 104.219 11.7358 104.111 11.8231L101.005 15.105C100.753 15.3574 100.753 15.5257 100.963 15.8203L105.203 22.2999C105.748 23.0993 105.664 23.4359 104.699 23.6042C102.726 24.025 100.963 23.7304 99.7037 21.6687C98.4444 19.607 97.1432 17.5874 95.8419 15.5678L95.5061 15.0629L97.7308 12.6646L101.131 8.91988C102.684 7.23686 104.615 6.90026 106.798 7.44724C106.986 7.52812 107.137 7.67883 107.217 7.86799L112.255 15.9886L112.548 16.4935Z" fill="#6C6132"/>
<path d="M31.2231 22.7463H26.0339C25.6573 22.7463 25.5317 22.5795 25.4062 22.246L22.5186 14.2835C22.4601 14.0851 22.3902 13.8902 22.3094 13.6998L22.0164 14.3252L19.2544 22.2043C19.1289 22.6212 18.9615 22.7463 18.543 22.7463H13.563C13.8978 21.8291 14.1907 20.9954 14.5255 20.1616L18.9196 8.44704C19.087 7.94678 19.2963 7.73834 19.8821 7.78002H24.9877C25.1314 7.75386 25.2797 7.7821 25.4035 7.85922C25.5274 7.93634 25.6179 8.05678 25.6573 8.19691L31.0976 22.3294C31.1511 22.4646 31.1931 22.6041 31.2231 22.7463Z" fill="#6C6132"/>
<path d="M61.1748 22.8428H55.9855C55.8317 22.8562 55.6784 22.8121 55.5548 22.719C55.4313 22.6258 55.3463 22.4901 55.316 22.3379L52.5121 14.4267L52.2192 13.7534L51.6333 15.3104C50.7963 17.6669 50.0012 20.0234 49.2061 22.3379C49.1666 22.5047 49.0688 22.6517 48.9305 22.7521C48.7922 22.8526 48.6227 22.8997 48.4528 22.8849H43.5146C43.5857 22.6284 43.6695 22.3756 43.7657 22.1275C45.4815 17.5407 47.1973 12.9118 48.8713 8.32494C48.9114 8.1501 49.0155 7.99681 49.1627 7.89548C49.31 7.79415 49.4898 7.75218 49.6664 7.77789H54.8975C55.051 7.76072 55.2056 7.79742 55.3353 7.88178C55.4649 7.96614 55.5616 8.09297 55.6089 8.24078C57.3666 12.9538 59.166 17.6248 60.9655 22.3379C61.0536 22.4979 61.1237 22.6673 61.1748 22.8428Z" fill="#6C6132"/>
<path d="M88.6105 7.68164C88.6129 8.35016 88.571 9.0181 88.485 9.6811C88.4124 10.1706 88.1565 10.6146 87.7686 10.9238C87.3808 11.2329 86.8898 11.3842 86.3945 11.3473C84.9729 11.3057 83.5096 11.2224 82.0462 11.2224C81.5791 11.2305 81.1151 11.3006 80.6665 11.4306C80.4706 11.4513 80.2894 11.5437 80.1581 11.6899C80.0267 11.8362 79.9546 12.0258 79.9557 12.2221C79.9646 12.4111 80.0413 12.5906 80.1717 12.7282C80.3021 12.8657 80.4776 12.9522 80.6665 12.9719L84.0113 13.6384C84.8057 13.805 85.6001 13.9716 86.3945 14.2215C88.5268 14.9713 89.5721 16.5126 89.5721 18.762C89.5721 19.7335 89.2536 20.6785 88.6649 21.453C88.0761 22.2275 87.2495 22.7892 86.3109 23.0525C85.2857 23.3937 84.214 23.5763 83.1333 23.594C80.9591 23.594 78.785 23.4274 76.6108 23.3441C76.5468 23.3443 76.4833 23.3313 76.4246 23.3057C76.3659 23.2801 76.3132 23.2425 76.2699 23.1955C76.2266 23.1484 76.1937 23.0929 76.1732 23.0324C76.1527 22.9719 76.1451 22.9078 76.1509 22.8442C76.136 22.3152 76.164 21.7858 76.2345 21.2613C76.3168 20.7573 76.5857 20.3023 76.9882 19.9861C77.3907 19.6699 77.8976 19.5155 78.4087 19.5534L83.2587 19.72C83.7145 19.7015 84.1651 19.6173 84.5967 19.4701C84.6902 19.4598 84.7809 19.4311 84.8632 19.3856C84.9456 19.3401 85.018 19.2787 85.0764 19.2051C85.1347 19.1314 85.1778 19.047 85.2031 18.9566C85.2284 18.8662 85.2355 18.7718 85.2238 18.6787C85.1411 18.3483 84.9307 18.0638 84.6385 17.8872C83.7186 17.5956 82.7988 17.429 81.879 17.2207C80.9591 17.0124 80.0393 16.8875 79.1195 16.5959C78.333 16.3963 77.615 15.9892 77.0411 15.4174C76.4672 14.8457 76.0586 14.1304 75.8583 13.3468C75.3147 11.0974 76.4854 8.88965 78.785 7.97323C79.9178 7.53738 81.1248 7.32517 82.3389 7.3484H85.5165L88.6105 7.68164Z" fill="#6C6132"/>
<path d="M37.4183 7.77051H44.1966C44.6176 7.77051 44.786 7.85449 44.786 8.3164C44.786 8.77831 44.7439 10.416 44.786 11.5078C44.786 11.8857 44.6597 12.0117 44.2387 12.0117H41.2074C40.4917 12.0117 40.4917 12.0117 40.4917 12.7255C40.4917 15.9169 40.4917 19.0663 40.5338 22.2577C40.5338 22.7196 40.4075 22.8876 39.9023 22.8876H35.1449C34.6818 22.8876 34.5134 22.7196 34.5134 22.2577C34.5555 19.1083 34.5134 15.9589 34.5134 12.8095C34.5134 12.0117 34.5134 12.0117 33.7135 12.0117H30.6401C30.2612 12.0117 30.0928 11.9277 30.0928 11.5078C30.1349 10.416 30.1349 9.3662 30.0928 8.27441C30.0928 7.85449 30.2612 7.77051 30.6401 7.77051H37.4183Z" fill="#6C6132"/>
<path d="M90.9851 23.5626V4.83345C90.9851 3.91166 91.0685 2.94797 91.9028 2.36137C92.1613 2.14715 92.4853 2.02879 92.8204 2.02617C93.4878 1.94237 94.1552 2.02617 94.8226 1.98427C95.49 1.94237 95.3231 2.10997 95.3231 2.52897C95.3231 7.05413 95.3231 11.5793 95.3648 16.1464C95.3648 17.8224 95.3648 19.4983 95.3231 21.2162C95.2814 22.9341 94.8643 23.3531 93.3627 23.5626C92.5707 23.6045 91.7771 23.6045 90.9851 23.5626Z" fill="#6C6132"/>
</svg>
