<svg width="69" height="52" viewBox="0 0 69 52" fill="none" xmlns="http://www.w3.org/2000/svg">
<path d="M34.009 40.0115C30.7567 40.0115 28.1108 42.6487 28.1108 45.8887C28.1108 49.1297 30.7567 51.768 34.009 51.768C37.2623 51.768 39.9081 49.1297 39.9081 45.8887C39.9081 42.6487 37.2618 40.0115 34.009 40.0115Z" fill="#6C6132"/>
<path d="M48.3995 32.0038C44.5596 28.166 39.4482 26.0515 34.009 26.0515C28.5907 26.0515 23.4933 28.1521 19.6544 31.9657C18.1039 33.5087 18.1013 36.0225 19.648 37.5681C20.3993 38.3206 21.3997 38.7338 22.4645 38.7338C23.5244 38.7338 24.521 38.3227 25.2713 37.5767C27.6075 35.255 30.7106 33.9761 34.009 33.9761C37.3198 33.9761 40.4314 35.2631 42.7692 37.5987C43.5206 38.349 44.5204 38.7633 45.5841 38.7633C46.6451 38.7633 47.6412 38.3522 48.392 37.6062C49.9446 36.0631 49.9473 33.5505 48.3995 32.0038Z" fill="#6C6132"/>
<path d="M66.8854 13.5789C58.1064 4.82153 46.4298 0 34.0089 0C21.6046 0 9.93985 4.81026 1.16352 13.5469C-0.386946 15.0898 -0.388019 17.6036 1.16138 19.1493C1.91219 19.8979 2.91095 20.3096 3.97358 20.3096C5.03567 20.3096 6.03336 19.8996 6.78417 19.1514C14.0589 11.9105 23.7272 7.92193 34.0089 7.92193C44.3056 7.92193 53.9836 11.9186 61.2599 19.1788C62.0107 19.928 63.0111 20.3412 64.0732 20.3412C65.1347 20.3412 66.1324 19.9291 66.8827 19.182C68.4337 17.6379 68.4353 15.1231 66.8854 13.5789Z" fill="#6C6132"/>
<path d="M57.4081 23.0222C51.1589 16.7876 42.849 13.3545 34.0088 13.3545C25.1847 13.3545 16.8871 16.7769 10.6434 22.9895C9.89147 23.7371 9.47768 24.7316 9.47607 25.7904C9.47607 26.8482 9.88824 27.8438 10.6391 28.5925C11.3899 29.3417 12.3892 29.7549 13.4518 29.7549C14.5128 29.7549 15.5105 29.3427 16.2624 28.5967C21.0056 23.8777 27.3083 21.278 34.0088 21.278C40.7232 21.278 47.0346 23.8868 51.781 28.622C52.5328 29.3722 53.5316 29.7855 54.5948 29.7855C55.6563 29.7855 56.6545 29.3733 57.4043 28.6263C58.1551 27.8787 58.57 26.8842 58.5705 25.8253C58.5716 24.7665 58.1583 23.772 57.4081 23.0222Z" fill="#6C6132"/>
</svg>
