<svg width="71" height="53" viewBox="0 0 71 53" fill="none" xmlns="http://www.w3.org/2000/svg">
<path d="M69.3577 23.5574L29.7547 0.927346C28.6886 0.317176 27.4854 -0.0128938 26.2849 0.000385657C24.0456 0.0251648 21.8162 1.1264 20.5054 3.00085L12.8331 13.9587C12.0802 15.0354 11.6823 16.2974 11.6823 17.6108C11.6823 19.8797 12.9031 21.993 14.8667 23.1254L23.219 27.9446L21.7102 29.9562C20.8931 31.0443 20.4439 32.3933 20.4439 33.7538C20.4439 35.153 20.9567 36.469 21.7828 37.557L19.5598 40.8927H8.76169V36.5075C8.76169 35.7003 8.10853 35.0471 7.30136 35.0471H1.46033C0.653157 35.0471 0 35.7003 0 36.5075V51.1103C0 51.9175 0.653157 52.5707 1.46033 52.5707H7.3015C8.10867 52.5707 8.76183 51.9175 8.76183 51.1103V49.6544H19.5599C22.4962 49.6544 25.2213 48.1956 26.8499 45.7527L29.2435 42.1622C29.7045 42.2621 30.1694 42.3529 30.6446 42.3529C32.969 42.3529 35.1566 41.115 36.3517 39.1215L37.9562 36.4472L50.3841 43.6179C50.6079 43.7476 50.8604 43.8132 51.1142 43.8132C51.2553 43.8132 51.3966 43.7932 51.5349 43.7519C51.92 43.635 52.2408 43.3654 52.4205 43.006L53.5016 40.8409C53.679 40.8544 53.8498 40.8927 54.0305 40.8927C59.6663 40.8927 64.2525 36.3065 64.2525 30.6707C64.2525 30.0517 64.161 29.4139 64.0251 28.7619L69.2865 26.1314C69.7685 25.8905 70.0779 25.4041 70.0937 24.8651C70.1078 24.3275 69.8255 23.8241 69.3577 23.5574ZM48.1893 35.0471C47.3828 35.0471 46.729 34.3933 46.729 33.5868C46.729 32.7802 47.3828 32.1265 48.1893 32.1265C48.9958 32.1265 49.6496 32.7802 49.6496 33.5868C49.6496 34.3933 48.9958 35.0471 48.1893 35.0471Z" fill="#6C6132"/>
</svg>
