<svg width="68" height="68" viewBox="0 0 68 68" fill="none" xmlns="http://www.w3.org/2000/svg">
<path d="M31.882 37.8618C31.0208 38.5377 30.1172 39.1577 29.1772 39.7186C28.3439 40.2151 27.542 40.7615 26.7753 41.3538C24.9839 42.7006 23.8999 44.7865 23.8247 47.026C23.8804 52.3519 31.0982 55.8766 33.3088 56.8298L33.3161 56.8346C34.0065 56.8939 34.7066 56.9242 35.4152 56.9242C37.908 56.9193 40.3849 56.5269 42.7565 55.7602C45.3062 54.0512 49.1362 50.5458 47.7735 45.4864C47.5882 44.7621 47.3266 44.0584 46.9935 43.3885C46.9644 43.3316 46.9366 43.277 46.9074 43.2213C46.469 43.8015 45.9154 44.2848 45.2796 44.6396C44.0659 45.284 42.7117 45.6171 41.3369 45.6086C40.6379 45.6062 39.9415 45.5081 39.2681 45.3203C38.3463 45.061 37.1921 44.5996 36.9328 43.8813C36.8008 43.5095 36.8541 43.0964 37.0745 42.7694C38.6467 40.4729 40.0421 38.2116 39.8507 35.8023C39.8132 35.3044 39.7307 34.8115 39.6036 34.3282C38.9701 32.0571 37.6353 30.0427 35.7906 28.5735C35.8596 29.9592 35.7458 31.3485 35.4551 32.705C34.8676 34.772 33.6103 36.5852 31.882 37.8618Z" fill="#6C6132"/>
<path d="M21.9619 25.7758C21.5453 27.3346 20.6514 28.7252 19.4062 29.7522L19.279 29.8793C18.2325 30.9489 17.3605 32.1758 16.6942 33.5156C15.6308 35.548 15.0711 37.807 15.0579 40.1048C15.0579 46.3597 19.2185 51.8163 25.3631 54.716C23.0145 52.8385 21.5743 50.0515 21.4011 47.0501C21.4678 44.074 22.8812 41.2881 25.2455 39.4773C26.0898 38.8207 26.9728 38.2164 27.8909 37.6677C28.746 37.1601 29.5685 36.5981 30.3522 35.9865C31.6663 35.0381 32.6317 33.6839 33.1005 32.1336C33.3622 30.7952 33.4482 29.4288 33.3561 28.0673C33.3427 27.4593 33.3306 26.8501 33.3427 26.2408C33.3682 25.5769 33.9156 25.0525 34.5794 25.0549C34.9307 25.061 35.2614 25.2209 35.4854 25.491C35.5896 25.554 35.7192 25.617 35.8124 25.6655C35.9275 25.7249 36.0171 25.7744 36.0583 25.7999C38.9459 27.6058 41.0475 30.4329 41.9462 33.7178C42.1061 34.3247 42.2126 34.9449 42.2624 35.5699C42.3072 38.2358 41.4605 40.8401 39.8568 42.9694C39.8992 42.984 39.9331 42.9961 39.9572 43.0045C41.3465 43.3679 42.8207 43.2007 44.0924 42.5346C44.4521 42.3359 44.7634 42.061 45.0033 41.7279C45.1377 41.5039 45.2371 41.2616 45.2976 41.0072C45.3642 40.7916 45.432 40.5748 45.5192 40.3556C45.5192 40.3556 45.5192 40.358 45.5204 40.352C45.6887 39.9329 46.0763 39.6422 46.5257 39.5974C46.975 39.5526 47.4123 39.7621 47.6594 40.14C47.7346 40.2273 47.8629 40.3654 47.9767 40.4889C48.1512 40.6791 48.3002 40.8499 48.3316 40.8947C48.6404 41.3367 48.9142 41.8007 49.1504 42.2852C49.561 43.1063 49.8843 43.9701 50.1134 44.8591C50.8159 47.4184 50.4828 50.151 49.1843 52.4645C49.6506 52.1096 50.1049 51.7414 50.5324 51.3489C53.7009 48.4892 55.5652 44.4593 55.6923 40.1933C55.7432 39.2522 55.7383 38.3111 55.6765 37.3711C55.565 33.2808 54.4774 29.2764 52.503 25.6922C50.1169 22.0343 47.2849 18.6888 44.0716 15.731C40.9684 12.6144 39.2181 8.78572 39.3695 5.46207C39.4362 3.83657 39.9994 2.27045 40.9841 0.97805C40.9175 0.954986 40.8485 0.930861 40.777 0.906604C40.2368 0.718908 39.7583 0.552951 39.6263 0.514113C37.4206 -0.0915237 35.101 -0.16297 32.8614 0.304546C30.1967 0.848413 27.8795 2.47511 26.4636 4.79705C24.7617 7.92929 24.3729 11.6079 25.3795 15.0261C25.4837 15.4306 25.3723 15.8618 25.084 16.1647C24.7957 16.4688 24.3706 16.6008 23.9611 16.516C18.8847 15.4622 15.9802 16.8479 14.4141 18.2577C15.383 18.4442 16.3375 18.7059 17.2678 19.039C20.5859 20.4512 22.4282 23.0953 21.9619 25.7758Z" fill="#6C6132"/>
<path d="M2.16277 60.6597C2.08522 60.6609 2.00887 60.667 1.93265 60.679L1.86478 60.6911C1.36943 60.8038 0.935717 61.1041 0.657223 61.5292C0.0697454 62.4656 -0.133724 63.592 0.0890983 64.6737C0.428303 66.6177 1.82475 68.0676 3.1487 67.8435C3.65625 67.737 4.0995 67.4329 4.38171 66.9981C4.96919 66.0618 5.17266 64.9353 4.94983 63.8537C4.63489 62.0442 3.39697 60.6597 2.16277 60.6597Z" fill="#6C6132"/>
<path d="M65.9907 60.6924L65.8878 60.6779C65.8224 60.6682 65.7557 60.6621 65.6904 60.6609C64.4562 60.6609 63.2194 62.0441 62.9033 63.8549C62.6805 64.9377 62.884 66.0642 63.4714 66.9993C63.7536 67.4342 64.197 67.7382 64.7044 67.8448C66.0296 68.0688 67.4248 66.6177 67.764 64.6737C67.9869 63.5909 67.7834 62.4644 67.1971 61.5292C66.9185 61.1055 66.4861 60.8051 65.9907 60.6924Z" fill="#6C6132"/>
<path d="M65.7424 57.1689L65.9871 57.1325C66.4825 57.0222 66.915 56.7219 67.1911 56.2956C67.781 55.3594 67.987 54.2304 67.7664 53.1464C67.4224 51.2108 66.0234 49.761 64.6983 49.9814L53.3817 51.9108C53.0002 52.3288 52.6004 52.7381 52.1728 53.1306C50.3693 54.7646 48.315 56.0969 46.0875 57.0769C46.0392 57.1023 45.9871 57.124 45.935 57.1422C45.1924 57.468 44.4306 57.7587 43.6505 58.0155C43.5706 58.0506 43.487 58.0784 43.4011 58.0954C40.8199 58.9203 38.1261 59.343 35.4166 59.3491C31.566 59.3612 27.7615 58.5169 24.2792 56.8744L5.72632 60.0335C6.56445 61 7.12171 62.1774 7.33605 63.4382C7.56497 64.6967 7.44633 65.994 6.99207 67.1895L33.6214 62.6497C33.648 62.6436 33.6747 62.6412 33.7025 62.6363L62.4236 57.7404C62.4393 57.7355 62.4563 57.7355 62.4721 57.7319L65.7122 57.1796C65.7231 57.1773 65.7316 57.17 65.7424 57.1689Z" fill="#6C6132"/>
<path d="M18.0507 52.5264L3.15358 49.9803C1.83454 49.7537 0.429476 51.2109 0.0855002 53.1525C-0.133743 54.2354 0.0721122 55.3606 0.663301 56.2958C0.945507 56.7282 1.38757 57.0311 1.89273 57.1376L1.9036 57.1388L2.10827 57.1678L5.13393 57.6839L20.9855 54.9779C19.9367 54.2488 18.9544 53.4286 18.0507 52.5264Z" fill="#6C6132"/>
<path d="M41.1443 63.8225L60.8598 67.1885C59.9974 64.8605 60.3899 62.254 61.8978 60.282L41.1443 63.8225Z" fill="#6C6132"/>
</svg>
